<mxfile host="app.diagrams.net" agent="Mozilla/5.0 (Windows NT 10.0; Win64; x64) AppleWebKit/537.36 (KHTML, like Gecko) Chrome/131.0.0.0 Safari/537.36" version="25.0.1">
  <diagram name="Trang-1" id="B1Z7RUMpYC1eu65Jh3ed">
    <mxGraphModel dx="1008" dy="592" grid="1" gridSize="10" guides="1" tooltips="1" connect="1" arrows="1" fold="1" page="1" pageScale="1" pageWidth="827" pageHeight="1169" math="0" shadow="0">
      <root>
        <mxCell id="0" />
        <mxCell id="1" parent="0" />
        <mxCell id="21OVzeW2txipDn_Tj661-3" value="" style="edgeStyle=orthogonalEdgeStyle;rounded=0;orthogonalLoop=1;jettySize=auto;html=1;" edge="1" parent="1" source="21OVzeW2txipDn_Tj661-1" target="21OVzeW2txipDn_Tj661-2">
          <mxGeometry relative="1" as="geometry" />
        </mxCell>
        <mxCell id="21OVzeW2txipDn_Tj661-1" value="Start" style="ellipse;whiteSpace=wrap;html=1;" vertex="1" parent="1">
          <mxGeometry x="350" y="270" width="120" height="80" as="geometry" />
        </mxCell>
        <mxCell id="21OVzeW2txipDn_Tj661-5" value="" style="edgeStyle=orthogonalEdgeStyle;rounded=0;orthogonalLoop=1;jettySize=auto;html=1;" edge="1" parent="1" source="21OVzeW2txipDn_Tj661-2" target="21OVzeW2txipDn_Tj661-4">
          <mxGeometry relative="1" as="geometry" />
        </mxCell>
        <mxCell id="21OVzeW2txipDn_Tj661-2" value="Nháº­p a, b, c" style="whiteSpace=wrap;html=1;" vertex="1" parent="1">
          <mxGeometry x="350" y="440" width="120" height="60" as="geometry" />
        </mxCell>
        <mxCell id="21OVzeW2txipDn_Tj661-7" value="" style="edgeStyle=orthogonalEdgeStyle;rounded=0;orthogonalLoop=1;jettySize=auto;html=1;" edge="1" parent="1" source="21OVzeW2txipDn_Tj661-4" target="21OVzeW2txipDn_Tj661-6">
          <mxGeometry relative="1" as="geometry" />
        </mxCell>
        <mxCell id="21OVzeW2txipDn_Tj661-8" value="False" style="edgeLabel;html=1;align=center;verticalAlign=middle;resizable=0;points=[];" vertex="1" connectable="0" parent="21OVzeW2txipDn_Tj661-7">
          <mxGeometry x="-0.275" y="4" relative="1" as="geometry">
            <mxPoint as="offset" />
          </mxGeometry>
        </mxCell>
        <mxCell id="21OVzeW2txipDn_Tj661-10" value="" style="edgeStyle=orthogonalEdgeStyle;rounded=0;orthogonalLoop=1;jettySize=auto;html=1;" edge="1" parent="1" source="21OVzeW2txipDn_Tj661-4" target="21OVzeW2txipDn_Tj661-9">
          <mxGeometry relative="1" as="geometry" />
        </mxCell>
        <mxCell id="21OVzeW2txipDn_Tj661-11" value="True" style="edgeLabel;html=1;align=center;verticalAlign=middle;resizable=0;points=[];" vertex="1" connectable="0" parent="21OVzeW2txipDn_Tj661-10">
          <mxGeometry x="-0.25" y="2" relative="1" as="geometry">
            <mxPoint as="offset" />
          </mxGeometry>
        </mxCell>
        <mxCell id="21OVzeW2txipDn_Tj661-4" value="a &amp;gt; b" style="rhombus;whiteSpace=wrap;html=1;" vertex="1" parent="1">
          <mxGeometry x="370" y="570" width="80" height="80" as="geometry" />
        </mxCell>
        <mxCell id="21OVzeW2txipDn_Tj661-19" value="" style="edgeStyle=orthogonalEdgeStyle;rounded=0;orthogonalLoop=1;jettySize=auto;html=1;" edge="1" parent="1" source="21OVzeW2txipDn_Tj661-6" target="21OVzeW2txipDn_Tj661-18">
          <mxGeometry relative="1" as="geometry" />
        </mxCell>
        <mxCell id="21OVzeW2txipDn_Tj661-20" value="True" style="edgeLabel;html=1;align=center;verticalAlign=middle;resizable=0;points=[];" vertex="1" connectable="0" parent="21OVzeW2txipDn_Tj661-19">
          <mxGeometry x="-0.2889" y="2" relative="1" as="geometry">
            <mxPoint as="offset" />
          </mxGeometry>
        </mxCell>
        <mxCell id="21OVzeW2txipDn_Tj661-22" value="" style="edgeStyle=orthogonalEdgeStyle;rounded=0;orthogonalLoop=1;jettySize=auto;html=1;" edge="1" parent="1" source="21OVzeW2txipDn_Tj661-6" target="21OVzeW2txipDn_Tj661-21">
          <mxGeometry relative="1" as="geometry" />
        </mxCell>
        <mxCell id="21OVzeW2txipDn_Tj661-6" value="b &amp;gt; c" style="rhombus;whiteSpace=wrap;html=1;" vertex="1" parent="1">
          <mxGeometry x="210" y="570" width="80" height="80" as="geometry" />
        </mxCell>
        <mxCell id="21OVzeW2txipDn_Tj661-13" value="" style="edgeStyle=orthogonalEdgeStyle;rounded=0;orthogonalLoop=1;jettySize=auto;html=1;" edge="1" parent="1" source="21OVzeW2txipDn_Tj661-9" target="21OVzeW2txipDn_Tj661-12">
          <mxGeometry relative="1" as="geometry" />
        </mxCell>
        <mxCell id="21OVzeW2txipDn_Tj661-14" value="True" style="edgeLabel;html=1;align=center;verticalAlign=middle;resizable=0;points=[];" vertex="1" connectable="0" parent="21OVzeW2txipDn_Tj661-13">
          <mxGeometry x="-0.1556" relative="1" as="geometry">
            <mxPoint as="offset" />
          </mxGeometry>
        </mxCell>
        <mxCell id="21OVzeW2txipDn_Tj661-16" value="" style="edgeStyle=orthogonalEdgeStyle;rounded=0;orthogonalLoop=1;jettySize=auto;html=1;" edge="1" parent="1" source="21OVzeW2txipDn_Tj661-9" target="21OVzeW2txipDn_Tj661-15">
          <mxGeometry relative="1" as="geometry" />
        </mxCell>
        <mxCell id="21OVzeW2txipDn_Tj661-17" value="False" style="edgeLabel;html=1;align=center;verticalAlign=middle;resizable=0;points=[];" vertex="1" connectable="0" parent="21OVzeW2txipDn_Tj661-16">
          <mxGeometry x="-0.1333" y="-1" relative="1" as="geometry">
            <mxPoint as="offset" />
          </mxGeometry>
        </mxCell>
        <mxCell id="21OVzeW2txipDn_Tj661-9" value="a &amp;gt; c" style="rhombus;whiteSpace=wrap;html=1;" vertex="1" parent="1">
          <mxGeometry x="370" y="730" width="80" height="80" as="geometry" />
        </mxCell>
        <mxCell id="21OVzeW2txipDn_Tj661-25" value="" style="edgeStyle=orthogonalEdgeStyle;rounded=0;orthogonalLoop=1;jettySize=auto;html=1;" edge="1" parent="1" source="21OVzeW2txipDn_Tj661-12" target="21OVzeW2txipDn_Tj661-24">
          <mxGeometry relative="1" as="geometry" />
        </mxCell>
        <mxCell id="21OVzeW2txipDn_Tj661-12" value="a" style="whiteSpace=wrap;html=1;" vertex="1" parent="1">
          <mxGeometry x="350" y="900" width="120" height="60" as="geometry" />
        </mxCell>
        <mxCell id="21OVzeW2txipDn_Tj661-15" value="c" style="whiteSpace=wrap;html=1;" vertex="1" parent="1">
          <mxGeometry x="510" y="740" width="120" height="60" as="geometry" />
        </mxCell>
        <mxCell id="21OVzeW2txipDn_Tj661-28" style="edgeStyle=orthogonalEdgeStyle;rounded=0;orthogonalLoop=1;jettySize=auto;html=1;entryX=0;entryY=0.5;entryDx=0;entryDy=0;" edge="1" parent="1" source="21OVzeW2txipDn_Tj661-18" target="21OVzeW2txipDn_Tj661-24">
          <mxGeometry relative="1" as="geometry">
            <Array as="points">
              <mxPoint x="250" y="1070" />
            </Array>
          </mxGeometry>
        </mxCell>
        <mxCell id="21OVzeW2txipDn_Tj661-18" value="b" style="whiteSpace=wrap;html=1;" vertex="1" parent="1">
          <mxGeometry x="190" y="740" width="120" height="60" as="geometry" />
        </mxCell>
        <mxCell id="21OVzeW2txipDn_Tj661-29" style="edgeStyle=orthogonalEdgeStyle;rounded=0;orthogonalLoop=1;jettySize=auto;html=1;entryX=0;entryY=0.5;entryDx=0;entryDy=0;" edge="1" parent="1" source="21OVzeW2txipDn_Tj661-21" target="21OVzeW2txipDn_Tj661-24">
          <mxGeometry relative="1" as="geometry">
            <Array as="points">
              <mxPoint x="90" y="1070" />
            </Array>
          </mxGeometry>
        </mxCell>
        <mxCell id="21OVzeW2txipDn_Tj661-21" value="c" style="whiteSpace=wrap;html=1;" vertex="1" parent="1">
          <mxGeometry x="30" y="580" width="120" height="60" as="geometry" />
        </mxCell>
        <mxCell id="21OVzeW2txipDn_Tj661-24" value="End" style="ellipse;whiteSpace=wrap;html=1;" vertex="1" parent="1">
          <mxGeometry x="340" y="1030" width="140" height="80" as="geometry" />
        </mxCell>
        <mxCell id="21OVzeW2txipDn_Tj661-27" style="edgeStyle=orthogonalEdgeStyle;rounded=0;orthogonalLoop=1;jettySize=auto;html=1;entryX=1.005;entryY=0.642;entryDx=0;entryDy=0;entryPerimeter=0;" edge="1" parent="1" source="21OVzeW2txipDn_Tj661-15" target="21OVzeW2txipDn_Tj661-24">
          <mxGeometry relative="1" as="geometry">
            <Array as="points">
              <mxPoint x="570" y="1081" />
            </Array>
          </mxGeometry>
        </mxCell>
      </root>
    </mxGraphModel>
  </diagram>
</mxfile>
